# xmcd
# 
# Track frame offsets:
#     150
#     16490
#     30014
#     46117
#     62404
#     75033
#     92654
#     104778
#     118896
#     135080
#     156300
# 
# Disc length: 2305
# 
# Revision: 0
# Processed by: cddbd v1.5.2PL0 Copyright (c) Steve Scherf et al.
# Submitted via: fre:ac v1.0.27
# 
DISCID=7508ff0b
DTITLE=Merle Haqggard - The Epic Years: The Box Set Series- cd 4 of 4
DYEAR=2013
DGENRE=Country
TTITLE0=A Place To Fall Apart-w/ Janie Fricke
TTITLE1=Little Hotel Room- w/ Ray Charles
TTITLE2=Jimmy The Broom- w/ Willie Nelson
TTITLE3=C C Waterback- w/ George Jones
TTITLE4=Carolyn- w/ Johnny Paycheck
TTITLE5=Why Do I Have To Choose- w/ Willie Nelson
TTITLE6=Must've Been Drunk- w/ George Jones
TTITLE7=Natural High- w/ Janie Fricke
TTITLE8=Turnin' Off A Memory- w/ Johnn Paycheck
TTITLE9=I Won't Give Up My Train- w/ Roger Miller
TTITLE10=Silver Wings- w/ Willie Nelson
EXTD=
EXTT0=
EXTT1=
EXTT2=
EXTT3=
EXTT4=
EXTT5=
EXTT6=
EXTT7=
EXTT8=
EXTT9=
EXTT10=
PLAYORDER=
